<svg xmlns="http://www.w3.org/2000/svg" width="32" height="32" viewBox="0 0 32 32" fill="none">
  <defs>
    <linearGradient id="bg" x1="16" y1="0" x2="16" y2="32" gradientUnits="userSpaceOnUse">
      <stop stop-color="#16335c"/>
      <stop offset="1" stop-color="#0a1733"/>
    </linearGradient>
    <linearGradient id="fl" x1="16" y1="29" x2="16" y2="6" gradientUnits="userSpaceOnUse">
      <stop stop-color="#fbbf24"/>
      <stop offset="0.5" stop-color="#f97316"/>
      <stop offset="1" stop-color="#e11d2e"/>
    </linearGradient>
    <linearGradient id="co" x1="16" y1="27" x2="16" y2="14" gradientUnits="userSpaceOnUse">
      <stop stop-color="#fffbeb"/>
      <stop offset="1" stop-color="#fcd34d"/>
    </linearGradient>
  </defs>
  <rect width="32" height="32" rx="7" fill="url(#bg)"/>
  <g transform="translate(4 4)">
    <path d="M12 1.5C13.1 6.7 16.4 8.8 16.4 13.6C16.4 17.3 14.5 20.4 12 20.4C9.5 20.4 7.6 17.3 7.6 13.6C7.6 11.6 8.3 10.2 9.2 9.3C9.05 10.85 9.7 11.7 10.7 11.9C9.4 8.7 10.2 4.9 12 1.5Z" fill="url(#fl)"/>
    <path d="M12 8.8C12.7 11.4 13.9 12.5 13.9 15.3C13.9 17.6 13 19.3 12 19.3C11 19.3 10.1 17.6 10.1 15.3C10.1 13 11.3 11.4 12 8.8Z" fill="url(#co)"/>
  </g>
</svg>
